<svg xmlns="http://www.w3.org/2000/svg" viewBox="0 0 1000 1000" width="0" height="0" style="position:absolute">
    <defs>
        <clipPath id="ps5" clipPathUnits="userSpaceOnUse">
            <path d="M 280 261 C 278.1 261.4, 275.5 261.6, 273.1 262.2 C 270.6 262.8, 268.8 263.8, 266.7 265.1 C 264.6 266.4, 262.4 267.4, 260.3 268.4 C 258.2 269.5, 256.5 271, 254.4 272.1 C 252.3 273.2, 249.9 273.7, 247.9 275.1 C 245.9 276.5, 244.5 278.5, 242.6 280.2 C 240.7 281.8, 238.7 283.3, 237 285.1 C 235.3 286.9, 234.2 289.1, 232.7 291.1 C 231.1 293, 229.4 294.8, 228.1 296.9 C 226.8 299, 225.9 301.4, 224.8 303.6 C 223.7 305.8, 222.2 307.8, 221.3 310.1 C 220.5 312.4, 220.4 315, 219.7 317.3 C 219 319.6, 218 321.8, 217.4 324.2 C 216.8 326.5, 216.6 329.1, 216.2 331.5 C 215.8 333.9, 215.2 336.3, 215 338.8 C 214.7 341.3, 214.9 343.9, 214.8 346.4 C 214.7 348.9, 214.2 351.4, 214.3 353.9 C 214.4 356.4, 215 358.9, 215.2 361.4 C 215.4 363.9, 215.2 366.5, 215.6 369 C 216.1 371.4, 217.2 373.7, 217.8 376.1 C 218.4 378.4, 218.6 381, 219.4 383.3 C 220.2 385.6, 221.4 387.7, 222.3 389.9 C 223.2 392.1, 223.8 394.6, 224.9 396.7 C 226 398.8, 227.7 400.4, 229 402.4 C 230.3 404.4, 231 406.8, 232.6 408.7 C 234.2 410.6, 236.6 411.7, 238.4 413.4 C 240.2 415.1, 241.6 417.2, 243.6 418.6 C 245.6 420, 248.1 420.6, 250.2 421.8 C 252.3 423, 254.1 424.6, 256.3 425.6 C 258.5 426.6, 261 427, 263.3 427.8 C 265.6 428.6, 267.8 429.8, 270.2 430.3 C 272.6 430.8, 275.2 430.6, 277.7 431 C 280.1 431.3, 282.5 431.9, 285 432 C 287.5 432.1, 290.1 431.7, 292.6 431.7 C 295.1 431.7, 297.6 432.3, 300.1 432.2 C 302.6 432.1, 305 431.4, 307.5 431.1 C 309.9 430.7, 312.5 430.8, 314.9 430.2 C 317.3 429.6, 319.4 428.3, 321.7 427.5 C 324 426.7, 326.5 426.2, 328.7 425.2 C 330.9 424.2, 332.7 422.6, 334.8 421.4 C 336.9 420.1, 339.4 419.3, 341.4 417.8 C 343.4 416.3, 344.5 413.9, 346.2 412.1 C 347.9 410.3, 350.1 409, 351.6 407 C 353.1 405, 353.9 402.6, 355.1 400.5 C 356.3 398.4, 357.9 396.6, 358.9 394.4 C 359.9 392.2, 360.3 389.7, 361.1 387.4 C 361.9 385.1, 363.2 382.9, 363.8 380.5 C 364.4 378.1, 364.2 375.6, 364.6 373.1 C 365 370.6, 365.7 368.2, 365.8 365.7 C 365.9 363.2, 365.3 360.7, 365.3 358.2 C 365.3 355.7, 365.9 353.2, 365.8 350.7 C 365.7 348.2, 365 345.8, 364.6 343.3 C 364.2 340.8, 364.4 338.2, 363.8 335.8 C 363.2 333.4, 361.9 331.2, 361.1 328.9 C 360.3 326.6, 359.9 324.1, 358.9 321.9 C 357.9 319.7, 356.3 317.9, 355.1 315.8 C 353.9 313.7, 353.1 311.3, 351.6 309.3 C 350.1 307.3, 347.9 306, 346.2 304.2 C 344.5 302.4, 343.4 300, 341.4 298.5 C 339.4 297, 336.9 296.2, 334.8 294.9 C 332.7 293.7, 330.9 292.1, 328.7 291.1 C 326.5 290.1, 324 289.6, 321.7 288.8 C 319.4 288, 317.3 286.7, 314.9 286.1 C 312.5 285.5, 309.9 285.6, 307.5 285.2 C 305 284.9, 302.6 284.2, 300.1 284.1 C 297.6 284, 295.1 284.6, 292.6 284.6 C 290.1 284.6, 287.5 284.2, 285 284.3 C 282.5 284.4, 280.1 285, 277.7 285.4 C 275.2 285.8, 272.6 285.6, 270.2 286.1 C 267.8 286.6, 265.6 287.8, 263.3 288.6 C 261 289.4, 258.5 289.8, 256.3 290.9 C 254.1 292, 252.3 293.5, 250.2 294.8 C 248.1 296.1, 245.6 296.8, 243.6 298.2 C 241.6 299.6, 240.2 301.7, 238.4 303.4 C 236.6 305.1, 234.2 306.2, 232.6 308.1 C 231 310, 230.3 312.4, 229 314.4 C 227.7 316.4, 226 318, 224.9 320.1 C 223.8 322.2, 223.2 324.7, 222.3 326.9 C 221.4 329.1, 220.2 331.2, 219.4 333.5 C 218.6 335.8, 218.4 338.4, 217.8 340.7 C 217.2 343.1, 216.1 345.4, 215.6 347.8 C 215.2 350.3, 215.4 352.9, 215.2 355.4 C 215 357.9, 214.4 360.4, 214.3 362.9 C 214.2 365.4, 214.7 367.9, 214.8 370.4 C 214.9 372.9, 214.7 375.5, 215 378 C 215.2 380.5, 215.8 382.9, 216.2 385.3 C 216.6 387.7, 216.8 390.3, 217.4 392.6 C 218 395, 219 397.2, 219.7 399.5 C 220.4 401.8, 220.5 404.4, 221.3 406.7 C 222.2 409, 223.7 411, 224.8 413.2 C 225.9 415.4, 226.8 417.8, 228.1 419.9 C 229.4 422, 231.1 423.8, 232.7 425.7 C 234.2 427.7, 235.3 429.9, 237 431.7 C 238.7 433.5, 240.7 435, 242.6 436.6 C 244.5 438.3, 245.9 440.3, 247.9 441.7 C 249.9 443.1, 252.3 443.6, 254.4 444.7 C 256.5 445.8, 258.2 447.3, 260.3 448.4 C 262.4 449.4, 264.6 450.4, 266.7 451.7 C 268.8 453, 270.6 454, 273.1 454.6 C 275.5 455.2, 278.1 455.4, 280 455.8 C 282 456.1, 284.1 456.2, 286.2 456.4 C 288.3 456.5, 290.5 456.8, 292.6 456.8 C 294.7 456.8, 296.8 456.5, 299 456.4 C 301.1 456.2, 303.2 456.1, 305.2 455.8 C 307.2 455.4, 309.9 455.2, 312.2 454.6 C 314.5 453.9, 316.4 452.7, 318.6 451.7 C 320.7 450.7, 322.9 449.8, 325.1 448.8 C 327.2 447.7, 329.1 446.1, 331.2 444.9 C 333.3 443.7, 335.8 443, 337.8 441.6 C 339.8 440.1, 341.2 437.9, 343 436.2 C 344.8 434.5, 347.1 433.3, 348.7 431.4 C 350.3 429.5, 351.1 427.1, 352.5 425.1 C 353.9 423.1, 355.7 421.5, 356.9 419.4 C 358.2 417.3, 359 414.9, 360 412.7 C 361.1 410.5, 362.6 408.5, 363.4 406.2 C 364.2 403.9, 364.4 401.3, 365 399 C 365.6 396.6, 366.7 394.3, 367.1 391.8 C 367.5 389.3, 367.3 386.7, 367.5 384.2 C 367.7 381.7, 368.3 379.2, 368.3 376.7 C 368.3 374.2, 367.7 371.7, 367.5 369.2 C 367.3 366.7, 367.5 364.1, 367.1 361.6 C 366.7 359.1, 365.6 356.8, 365 354.4 C 364.4 352.1, 364.2 349.5, 363.4 347.2 C 362.6 344.9, 361.1 342.9, 360 340.7 C 359 338.5, 358.2 336.1, 356.9 334 C 355.7 331.9, 353.9 330.3, 352.5 328.3 C 351.1 326.3, 350.3 323.9, 348.7 322 C 347.1 320.1, 344.8 318.9, 343 317.2 C 341.2 315.5, 339.8 313.3, 337.8 311.8 C 335.8 310.4, 333.3 309.7, 331.2 308.5 C 329.1 307.3, 327.2 305.7, 325.1 304.6 C 322.9 303.6, 320.7 302.7, 318.6 301.7 C 316.4 300.7, 314.5 299.5, 312.2 298.8 C 309.9 298.2, 307.2 298, 305.2 297.6 C 303.2 297.3, 301.1 297.2, 299 297 C 296.8 296.9, 294.7 296.6, 292.6 296.6 C 290.5 296.6, 288.3 296.9, 286.2 297 C 284.1 297.2, 282 297.3, 280 297.6 Z"/>
        </clipPath>
    </defs>
</svg>